<svg width="512" height="512" viewBox="0 0 512 512" fill="none" xmlns="http://www.w3.org/2000/svg">
<path d="M190.97 73H106.03C87.788 73 73 87.788 73 106.03V190.97C73 209.212 87.788 224 106.03 224H190.97C209.212 224 224 209.212 224 190.97V106.03C224 87.788 209.212 73 190.97 73Z" stroke="#91A0CE" stroke-width="16" stroke-linecap="round" stroke-linejoin="round"/>
<path d="M405.97 73H321.03C302.788 73 288 87.788 288 106.03V190.97C288 209.212 302.788 224 321.03 224H405.97C424.212 224 439 209.212 439 190.97V106.03C439 87.788 424.212 73 405.97 73Z" stroke="#91A0CE" stroke-width="16" stroke-linecap="round" stroke-linejoin="round"/>
<path d="M190.97 288H106.03C87.788 288 73 302.788 73 321.03V405.97C73 424.212 87.788 439 106.03 439H190.97C209.212 439 224 424.212 224 405.97V321.03C224 302.788 209.212 288 190.97 288Z" stroke="#91A0CE" stroke-width="16" stroke-linecap="round" stroke-linejoin="round"/>
<path d="M405.97 288H321.03C302.788 288 288 302.788 288 321.03V405.97C288 424.212 302.788 439 321.03 439H405.97C424.212 439 439 424.212 439 405.97V321.03C439 302.788 424.212 288 405.97 288Z" stroke="#91A0CE" stroke-width="16" stroke-linecap="round" stroke-linejoin="round"/>
</svg>
